HIERARCHY
ROOT Hips
{
	OFFSET	0.00	0.00	0.00
	CHANNELS 6 Xposition Yposition Zposition Zrotation Xrotation Yrotation
	JOINT Spine
	{
		OFFSET	 0.00	0.01	 0.00
		CHANNELS 3 Zrotation Xrotation Yrotation
		JOINT Spine1
		{
			OFFSET	 0.00	 2.45913012437421	 0.00
			CHANNELS 3 Zrotation Xrotation Yrotation
            JOINT Neck
            {
                OFFSET	 0.00	 2.48462964506057	 0.00
                CHANNELS 3 Zrotation Xrotation Yrotation
                JOINT Head
                {
                    OFFSET	 0.00	 0.927524780924562	 0.00
                    CHANNELS 3 Zrotation Xrotation Yrotation
                    End Site 
                    {
                        OFFSET	 0.00	 1.14999962169752	 0.00
                    }
                }
            }
			JOINT LeftShoulder
			{
				OFFSET	 0.00	 2.48462964506057	 0.00
				CHANNELS 3 Zrotation Xrotation Yrotation
				JOINT LeftUpArm
				{
					OFFSET	 0.00	 1.24881979654096	 0.00
					CHANNELS 3 Zrotation Xrotation Yrotation
					JOINT LeftForeArm
					{
						OFFSET	 0.00	2.59758046908119	 0.00
						CHANNELS 3 Zrotation Xrotation Yrotation
						JOINT LeftHand
						{
							OFFSET	 0.00	2.45542024364365	 0.00
							CHANNELS 3 Zrotation Xrotation Yrotation
							JOINT LeftHandThumb 
							{
								OFFSET	 0.00	0.00	 0.00
								CHANNELS 3 Zrotation Xrotation Yrotation
								End Site
								{
									OFFSET	 0.00	0.00	1.00000003353624
								}
							}
							JOINT L_Wrist_End 
							{
								OFFSET	 0.00	0.99999967115358	 0.00
								CHANNELS 3 Zrotation Xrotation Yrotation
								End Site 
								{
									OFFSET	 0.00	 0.00	 0.00
								}
							}
						}
					}
				}
			}
			JOINT RightShoulder
			{
				OFFSET	 0.00	 2.48462964506057	 0.00
				CHANNELS 3 Zrotation Xrotation Yrotation
				JOINT RightUpArm
				{
					OFFSET	 0.00	 1.24881979654096	 0.00
					CHANNELS 3 Zrotation Xrotation Yrotation
					JOINT RightForeArm
					{
						OFFSET	 0.00	2.59758046908119	 0.00
						CHANNELS 3 Zrotation Xrotation Yrotation
						JOINT RightHand
						{
							OFFSET	 0.00	2.45542024364365	 0.00
							CHANNELS 3 Zrotation Xrotation Yrotation
							JOINT RightHandThumb 
							{
								OFFSET	 0.00	0.00	 0.00
								CHANNELS 3 Zrotation Xrotation Yrotation
								End Site
								{
									OFFSET	 0.00	0.00	1.00000003353624
								}
							}
							JOINT R_Wrist_End 
							{
								OFFSET	 0.00	0.99999967115358	 0.00
								CHANNELS 3 Zrotation Xrotation Yrotation
								End Site 
								{
									OFFSET	 0.00	 0.00	 0.00
								}
							}
						}
					}
				}
			}
		}
	}
	JOINT LeftUpLeg
	{
		OFFSET	 1.2719394002717	 0.00	 0.00
		CHANNELS 3 Zrotation Xrotation Yrotation
		JOINT LeftLowLeg
		{
			OFFSET	 0.00	-4.3429100912261	 0.00
			CHANNELS 3 Zrotation Xrotation Yrotation
			JOINT LeftFoot
			{
				OFFSET	 0.00	-4.48767017425826	 0.00
				CHANNELS 3 Zrotation Xrotation Yrotation
				JOINT LeftToeBase
                {
                    OFFSET	 0.00	0.00	 1.51507020887566
                    CHANNELS 3 Zrotation Xrotation Yrotation
                    End Site 
                    {
                        OFFSET	 0.00	0.00	 0.75000010571191
                    }
                }
			}
		}
	}
	JOINT RightUpLeg
	{
		OFFSET	 -1.2719393604653	 0.00	 0.00
		CHANNELS 3 Zrotation Xrotation Yrotation
		JOINT RightLowLeg
		{
			OFFSET	 0.00	-4.3429100912261	 0.00
			CHANNELS 3 Zrotation Xrotation Yrotation
			JOINT RightFoot
			{
				OFFSET	 0.00	-4.48767017425826	 0.00
				CHANNELS 3 Zrotation Xrotation Yrotation
				JOINT RightToeBase
                {
                    OFFSET	 0.00	0.00	 1.51507020887566
                    CHANNELS 3 Zrotation Xrotation Yrotation
                    End Site 
                    {
                        OFFSET	 0.00	0.00	 0.749999965609858
                    }
                }   
			}
		}
	}
}
MOTION 
Frames:	15 
Frame Time: 0.02 
 -0.39270801544189454 -2.30197998046875 9.382160034179687 -160.487 69.5582 -193.001 6.0546 -30.8861 0.353815 -2.1744 7.0202 0.0521491 12.4164 39.9404 -1.80181 -31.8751 -74.4138 339.323 -120.4908 0.645237 10.616 -38.3266 7.77958 -328.097 0.0 16.6608 0.0 2.06853 -10.5515 396.835 0.0 0.0 0.0 0.0 0.0 0.0 120.5432 -4.45742 -3.0278 44.3915 -1.80254 -23.1547 0.0 18.2859 0.0 -0.533266 -4.56641 -4.4814 0.0 0.0 0.0 0.0 0.0 0.0 -0.0842934 -14.4492 -20.7555 0.0 3.76361 0.0 1.2881 -2.7574005 22.7881 0.0 -10.869181 0.0 9.94338 -14.5806 30.4409 0.0 3.35107 0.0 2.19325 4.2669 -29.8914 0.0 -17.97349 0.0 
  -0.3920180130004883 -2.3038800048828123 9.382379760742188 -160.52 69.5501 -193.041 6.05693 -30.8828 0.358806 -2.16557 6.92835 0.0507299 12.4779 39.9787 -1.89829 -31.7302 -74.3266 339.375 -120.4882 0.662456 10.5833 -38.4692 7.79857 -328.112 0.0 16.15 0.0 3.40648 -10.6396 397.685 0.0 0.0 0.0 0.0 0.0 0.0 120.5104 -4.4262 -3.03105 44.5987 -1.78878 -22.4723 0.0 18.1125 0.0 -0.73698 -4.5724 -4.003 0.0 0.0 0.0 0.0 0.0 0.0 -0.0585373 -14.3956 -20.6786 0.0 3.68072 0.0 1.25516 -2.7567997 22.768 0.0 -10.84733 0.0 9.95161 -14.5779 30.5709 0.0 3.35923 0.0 2.19453 4.2759 -29.9403 0.0 -17.97067 0.0 
  -0.39165401458740234 -2.305970001220703 9.382520141601562 -160.606 69.5325 -193.045 6.01873 -30.8672 0.326711 -2.10207 6.76814 0.0550651 12.4823 40.1102 -1.91721 -31.731 -74.2549 339.279 -120.531204 0.649293 10.5853 -38.617 7.70986 -328.237 0.0 15.9266 0.0 4.85007 -10.7504 398.007 0.0 0.0 0.0 0.0 0.0 0.0 120.479904 -4.44168 -3.04325 44.7876 -1.8013 -21.8434 0.0 18.1197 0.0 -1.00155 -4.70332 -3.88596 0.0 0.0 0.0 0.0 0.0 0.0 -0.0456575 -14.3556 -20.5421 0.0 3.60108 0.0 1.25556 -2.7397995 22.7153 0.0 -10.83556 0.0 9.93804 -14.5744 30.6289 0.0 3.33239 0.0 2.18831 4.2829 -29.9111 0.0 -17.92846 0.0 
  -0.39133998870849607 -2.3083299255371093 9.382230224609375 -160.711 69.4952 -193.039 5.97412 -30.8723 0.287915 -2.02426 6.60652 0.0634271 12.5019 40.2214 -1.95548 -31.6628 -74.1621 339.296 -120.5509 0.607906 10.5665 -38.8439 7.56401 -328.491 0.0 15.8957 0.0 6.06416 -10.734 397.667 0.0 0.0 0.0 0.0 0.0 0.0 120.4738 -4.51579 -3.0305 44.9386 -1.76255 -21.4857 0.0 18.2048 0.0 -0.929914 -5.12027 -3.00313 0.0 0.0 0.0 0.0 0.0 0.0 -0.0354134 -14.3432 -20.3919 0.0 3.53857 0.0 1.26087 -2.7308998 22.6631 0.0 -10.85513 0.0 9.92321 -14.585 30.6349 0.0 3.28769 0.0 2.18129 4.3086996 -29.8265 0.0 -17.965 0.0 
  -0.39172298431396485 -2.3115299987792968 9.381849975585938 -160.813 69.4703 -193.062 5.91909 -30.895 0.23612 -1.91036 6.48173 0.0772667 12.4817 40.3203 -1.96151 -31.6618 -74.0703 339.252 -120.5794 0.543669 10.5552 -39.0579 7.34194 -328.641 0.0 16.1871 0.0 7.01002 -10.7674 396.708 0.0 0.0 0.0 0.0 0.0 0.0 120.4496 -4.50216 -3.08141 45.1365 -1.78391 -21.158 0.0 18.3391 0.0 -1.12118 -5.10253 -2.16864 0.0 0.0 0.0 0.0 0.0 0.0 -0.0145167 -14.3161 -20.135 0.0 3.48745 0.0 1.24976 -2.7518005 22.5239 0.0 -10.87411 0.0 9.91719 -14.5779 30.5694 0.0 3.24319 0.0 2.1441 4.342 -29.6665 0.0 -17.96557 0.0 
  -0.3913869857788086 -2.3147599792480467 9.38166015625 -160.936 69.447 -193.066 5.90507 -30.9326 0.226879 -1.86048 6.37603 0.0886642 12.6033 40.4045 -2.12622 -31.6122 -73.9908 339.338 -120.5771 0.492228 10.5708 -39.312 7.09017 -328.796 0.0 16.6233 0.0 7.63822 -10.5341 395.79 0.0 0.0 0.0 0.0 0.0 0.0 120.4525 -4.52805 -3.07926 45.3112 -1.81825 -21.0584 0.0 18.5959 0.0 -1.2213 -5.1138 -1.75197 0.0 0.0 0.0 0.0 0.0 0.0 -0.0114118 -14.2935 -19.9039 0.0 3.44864 0.0 1.26065 -2.7632008 22.4224 0.0 -10.86079 0.0 9.89165 -14.5632 30.4483 0.0 3.17541 0.0 2.09218 4.3985996 -29.4485 0.0 -17.99663 0.0 
  -0.39097000122070313 -2.3162800598144533 9.381320190429687 -161.01 69.4284 -193.065 5.87185 -30.9187 0.177841 -1.79449 6.21939 0.0645542 12.6332 40.531 -2.14455 -31.6119 -73.9627 339.316 -120.5745 0.430562 10.5904 -39.6463 6.81895 -329.252 0.0 17.2104 0.0 7.7689 -10.5257 394.203 0.0 0.0 0.0 0.0 0.0 0.0 120.4672 -4.54426 -3.06163 45.4805 -1.88315 -21.099 0.0 18.8734 0.0 -1.15454 -5.04713 -0.825672 0.0 0.0 0.0 0.0 0.0 0.0 -0.0177868 -14.3096 -19.7338 0.0 3.46685 0.0 1.29826 -2.7667007 22.339 0.0 -10.9111595 0.0 9.87676 -14.5638 30.314 0.0 3.13631 0.0 2.07225 4.4175997 -29.2666 0.0 -18.00063 0.0 
  -0.3901850128173828 -2.3166900634765626 9.381090087890625 -161.076 69.4107 -193.09 5.85613 -30.8711 0.149921 -1.71679 6.02743 0.0408923 12.6948 40.6564 -2.21148 -31.6598 -73.9382 339.264 -120.5887 0.34366 10.5933 -39.9858 6.5312 -329.316 0.0 17.8852 0.0 7.82283 -10.3696 392.806 0.0 0.0 0.0 0.0 0.0 0.0 120.5075 -4.55605 -3.11708 45.5612 -1.95835 -21.2568 0.0 19.4139 0.0 -1.24079 -5.09861 -0.825981 0.0 0.0 0.0 0.0 0.0 0.0 -0.0280362 -14.3474 -19.5466 0.0 3.52968 0.0 1.3155 -2.8066006 22.2488 0.0 -10.93114 0.0 9.87551 -14.5838 30.2056 0.0 3.13539 0.0 2.03094 4.4449997 -29.0973 0.0 -18.00928 0.0 
  -0.3895199966430664 -2.3169900512695314 9.381010131835938 -161.174 69.3947 -193.112 5.82622 -30.828 0.12388 -1.6075 5.85433 0.0443929 12.6756 40.781 -2.1699 -31.7175 -73.9353 339.132 -120.616104 0.27623 10.5784 -40.3592 6.23424 -329.239 0.0 18.628 0.0 7.63109 -10.2426 391.396 0.0 0.0 0.0 0.0 0.0 0.0 120.4564 -4.56111 -3.15718 45.7839 -2.0312 -21.4155 0.0 19.769 0.0 -1.14598 -4.65693 0.859937 0.0 0.0 0.0 0.0 0.0 0.0 -0.041694 -14.3726 -19.4787 0.0 3.57747 0.0 1.32109 -2.8446999 22.2898 0.0 -10.907801 0.0 9.87744 -14.6123 30.2514 0.0 3.15479 0.0 2.01985 4.4523 -29.0337 0.0 -18.00296 0.0 
  -0.38917301177978514 -2.3186700439453123 9.380850219726563 -161.467 69.3899 -193.115 5.80639 -30.8262 0.177529 -1.49504 5.75344 0.152156 12.7129 40.8346 -2.20717 -31.6467 -73.9043 339.163 -120.6406 0.216773 10.5895 -40.7534 5.99637 -329.078 0.0 19.3838 0.0 7.088 -10.0896 390.107 0.0 0.0 0.0 0.0 0.0 0.0 120.3881 -4.58268 -3.19692 46.0063 -2.09499 -21.7978 0.0 20.2089 0.0 -1.09453 -4.43638 2.39418 0.0 0.0 0.0 0.0 0.0 0.0 -0.0682735 -14.3319 -19.2967 0.0 3.55017 0.0 1.35306 -2.8472996 22.3992 0.0 -10.9009 0.0 9.87301 -14.6612 30.6231 0.0 3.24148 0.0 2.0891 4.3996 -29.0736 0.0 -18.00806 0.0 
  -0.38948501586914064 -2.32406005859375 9.381430053710938 -161.262 69.4384 -193.269 5.75012 -30.8874 0.0566784 -1.38794 5.8104 0.0847396 12.8165 40.8271 -2.3147 -31.3806 -73.8542 339.374 -120.7278 0.203619 10.6405 -40.9599 5.74654 -328.492 0.0 20.3599 0.0 6.35186 -9.85249 389.192 0.0 0.0 0.0 0.0 0.0 0.0 120.3363 -4.59736 -3.18408 46.2477 -2.16845 -22.2131 0.0 20.6475 0.0 -1.0453 -4.39222 2.81468 0.0 0.0 0.0 0.0 0.0 0.0 -0.0220634 -14.2597 -19.5006 0.0 3.592 0.0 1.35556 -2.8815994 22.5525 0.0 -10.93048 0.0 9.92193 -14.5514 30.5581 0.0 3.2122 0.0 2.01488 4.4741 -29.1125 0.0 -18.01204 0.0 
  -0.38929000854492185 -2.3260699462890626 9.38166015625 -161.181 69.4607 -193.31 5.75335 -30.9331 0.00991249 -1.43524 5.86659 0.0188721 12.7474 40.8831 -2.09342 -31.0512 -73.9496 339.44 -120.8141 0.210071 10.7105 -41.0271 5.56499 -327.524 0.0 21.416 0.0 5.51843 -9.53048 388.789 0.0 0.0 0.0 0.0 0.0 0.0 120.3513 -4.60624 -3.10777 46.4771 -2.23644 -22.6395 0.0 20.9542 0.0 -1.05934 -4.16168 2.85665 0.0 0.0 0.0 0.0 0.0 0.0 -0.0255519 -14.2568 -19.6822 0.0 3.66614 0.0 1.35645 -2.9207 22.6896 0.0 -10.89837 0.0 9.93901 -14.508 30.643 0.0 3.21234 0.0 1.98593 4.4912004 -29.2619 0.0 -17.9997 0.0 
  -0.38813999176025393 -2.3285499572753907 9.38135986328125 -161.198 69.4983 -193.346 5.84662 -30.9783 0.0848828 -1.59136 5.90974 -0.0156795 13.3483 40.7405 -2.79891 -30.465 -73.8541 340.304 -120.9113 0.188437 10.8143 -40.8592 5.36736 -325.876 0.0 22.7489 0.0 4.99817 -9.13924 388.409 0.0 0.0 0.0 0.0 0.0 0.0 120.3232 -4.57011 -3.06932 46.7987 -2.33023 -23.0621 0.0 21.1663 0.0 -1.41154 -4.02935 2.17389 0.0 0.0 0.0 0.0 0.0 0.0 -0.0384625 -14.2 -19.7567 0.0 3.67752 0.0 1.37836 -2.9326992 22.8245 0.0 -10.907499 0.0 9.9457 -14.4743 30.8183 0.0 3.26159 0.0 2.00648 4.4521 -29.3701 0.0 -18.00153 0.0 
  -0.3869350051879883 -2.325899963378906 9.38114013671875 -161.033 69.5412 -193.344 5.94226 -30.9083 0.0905548 -1.84234 5.8672 -0.176936 13.7014 40.7326 -3.09733 -29.9924 -73.9202 340.765 -120.9155 0.215167 10.8886 -40.8633 5.27878 -324.78 0.0 23.7132 0.0 4.14835 -8.52334 388.14 0.0 0.0 0.0 0.0 0.0 0.0 120.4135 -4.56244 -3.03355 46.979 -2.31212 -23.2101 0.0 21.2238 0.0 -1.37218 -4.16602 2.4918 0.0 0.0 0.0 0.0 0.0 0.0 -0.0651025 -14.2461 -20.0337 0.0 3.81099 0.0 1.35592 -2.9722996 22.9069 0.0 -10.9206505 0.0 9.94555 -14.4443 30.7814 0.0 3.28127 0.0 2.03794 4.4048996 -29.4838 0.0 -17.99493 0.0 
  -0.38666500091552736 -2.3245899963378904 9.381099853515625 -160.947 69.56 -193.333 6.01037 -30.8833 0.111178 -2.03502 5.82555 -0.268081 14.0779 40.7269 -3.47294 -29.6157 -73.9447 341.13 -120.922195 0.229763 10.9664 -40.8158 5.23866 -323.583 0.0 24.6523 0.0 3.55386 -8.08147 387.998 0.0 0.0 0.0 0.0 0.0 0.0 120.4915 -4.55385 -3.02138 47.1156 -2.34711 -23.0442 0.0 21.2196 0.0 -1.58536 -4.23551 2.2388 0.0 0.0 0.0 0.0 0.0 0.0 -0.0762709 -14.273 -20.1548 0.0 3.87732 0.0 1.32772 -3.0009995 22.9104 0.0 -10.90518 0.0 9.94763 -14.4299 30.7608 0.0 3.288 0.0 2.03647 4.3886003 -29.5633 0.0 -17.97339 0.0 
